<?xml version="1.0"?>
<svg xmlns="http://www.w3.org/2000/svg" xmlns:xlink="http://www.w3.org/1999/xlink" version="1.1" id="Capa_1" x="0px" y="0px" viewBox="0 0 206.6 206.6" style="enable-background:new 0 0 206.6 206.6;" xml:space="preserve" width="512px" height="512px"><g><path d="M103.3,0L103.3,0C69.366,0,41.857,27.509,41.857,61.443v83.714c0,33.934,27.509,61.443,61.443,61.443h0  c33.934,0,61.443-27.509,61.443-61.443V61.443C164.743,27.509,137.234,0,103.3,0z M111.358,65.051c0,4.451-3.608,8.058-8.058,8.058  h0c-4.451,0-8.058-3.608-8.058-8.058V37.132c0-4.45,3.608-8.058,8.058-8.058h0c4.45,0,8.058,3.608,8.058,8.058V65.051z" data-original="#000000" class="active-path" data-old_color="#ffffff" fill="#ffffff"/></g> </svg>
